<?xml version="1.0" encoding="UTF-8"?><svg id="Layer_1" xmlns="http://www.w3.org/2000/svg" viewBox="0 0 240.58 299.76"><defs><style>.cls-1{fill:#2b353f;}.cls-2,.cls-3{fill:#5e879e;}.cls-3{font-family:FONTSPRINGDEMO-VisbyCFMediumRegular, 'FONTSPRING DEMO - Visby CF Medium';font-size:36px;}</style></defs><path class="cls-1" d="m180.36,238.96l-.95,1.19c-4.1,5.13-4.75,7.47-7.46,9.86l-73.65-67.57c-1.15-1.49,18.34-23.1,23.68-18.95l57.03,63.05c3.83,3.13,4.42,8.6,1.36,12.42Z"/><path class="cls-1" d="m112.66,17.41l-48.61,21.28L108.56,5.18c1.56-1.17,1.77-3.31,5.33-.22l11.56,7.3-12.8,5.14Z"/><path class="cls-1" d="m203.35,91.58l-45.52,32.78,58.37-65.47c2.49-2.79.77-5.65,3.95-3.68l8.22,5.73c2.24,2.45,12.88,4.28,10.05,6.11l-35.07,24.53Z"/><path class="cls-2" d="m4.75,78.85v123.61l39.53,47.55,70.71-77.03,56.96,77.03,48.56-42.92-62.01-81.84c-.39-.52-.43.48,0,0l57.7-66.36,24.35,7.96c1.38.86-68.69-40.86-68.69-40.86l-111.72,121.25V41.63L110.49,3.73s16.21,9.65,14.97,8.53L107.4,0S34.71,32.97,34.46,33.16"/><text class="cls-3" transform="translate(0 292.27)"><tspan x="0" y="0">Kiana Heidari</tspan></text></svg>